# xmcd CD database file
#
# Track frame offsets:
#	150
#	16609
#	34464
#	54361
#	70955
#	93712
#	112005
#	129718
#	147395
#	165091
#	182376
#	202510
#	223141
#	244791
#	264671
#	276697
#
# Disc length: 3906 seconds
#
# Revision: 0
# Processed by: cddbd v1.4PL0 Copyright (c) Steve Scherf et al.
# Submitted via: CDex 1.50beta8
#
DISCID=eb0f4010
DTITLE=MerenHits - 2003
DYEAR=1900
DGENRE=Merengue
TTITLE0=Elvis Crespo
TTITLE1=Eddy Herrera
TTITLE2=Christian Castro
TTITLE3=Magic Juan
TTITLE4=Mala Fe
TTITLE5=La Makina
TTITLE6=Anthony
TTITLE7=Miguel Angel
TTITLE8=Melao Criollo
TTITLE9=Rikarena
TTITLE10=Alex Bueno
TTITLE11=Kinito Mendez feat Yoskar Sarante
TTITLE12=Wilfrido Vargas and A Vargas feat Eddy Herrera
TTITLE13=Zafra Negra
TTITLE14=Los Golden Boys
TTITLE15=El Prodigio and Magic Juan
EXTD=
EXTT0=
EXTT1=
EXTT2=
EXTT3=
EXTT4=
EXTT5=
EXTT6=
EXTT7=
EXTT8=
EXTT9=
EXTT10=
EXTT11=
EXTT12=
EXTT13=
EXTT14=
EXTT15=
PLAYORDER=
